<svg width="56" height="56" viewBox="0 0 56 56" fill="none" xmlns="http://www.w3.org/2000/svg">
<g id="f7:alarm-fill">
<path id="Vector" d="M8.73376 13.469C9.08576 13.469 9.34376 13.422 9.67176 13.164L17.5228 7.234C17.9218 6.954 18.1328 6.578 18.1328 6.18C18.1328 5.688 17.8978 5.29 17.4998 4.914C16.6098 4.117 15.0148 3.672 13.6098 3.672C12.7433 3.66669 11.8845 3.83341 11.083 4.16249C10.2815 4.49158 9.55328 4.97648 8.94057 5.5891C8.32786 6.20171 7.84285 6.92985 7.51364 7.7313C7.18444 8.53275 7.01759 9.39158 7.02276 10.258C7.02276 11.125 7.16376 11.992 7.39776 12.531C7.65576 13.117 8.17176 13.469 8.73376 13.469ZM47.2418 13.469C47.8278 13.469 48.2968 13.094 48.5778 12.531C48.8358 12.016 48.9758 11.125 48.9758 10.258C48.9758 6.602 46.0458 3.672 42.3668 3.672C40.9838 3.672 39.3908 4.117 38.4998 4.914C38.1008 5.289 37.8668 5.688 37.8668 6.18C37.8668 6.578 38.0778 6.953 38.4528 7.234L46.3048 13.164C46.6328 13.422 46.8908 13.469 47.2418 13.469ZM8.38176 51.602C8.55179 51.7756 8.75511 51.913 8.97955 52.0061C9.20398 52.0993 9.4449 52.1461 9.68787 52.1439C9.93084 52.1416 10.1709 52.0903 10.3935 51.9931C10.6162 51.8959 10.817 51.7547 10.9838 51.578L14.6868 47.898C18.5405 50.7471 23.2072 52.2838 27.9998 52.282C32.9918 52.282 37.5858 50.642 41.3118 47.9L45.0158 51.58C45.7418 52.33 46.8908 52.33 47.5938 51.603C48.2738 50.923 48.2968 49.775 47.5698 49.071L44.0078 45.532C48.1162 41.3577 50.4148 35.7329 50.4058 29.876C50.4058 17.5 40.3748 7.445 27.9998 7.445C15.6248 7.445 5.59376 17.5 5.59376 29.875C5.58717 35.727 7.87607 41.3482 11.9688 45.531L8.40576 49.071C7.70276 49.774 7.70276 50.921 8.38276 51.601M17.3368 32.452C16.3988 32.452 15.6968 31.749 15.6968 30.835C15.6968 29.921 16.3988 29.195 17.3368 29.195H26.3598V16.632C26.3598 15.718 27.0628 14.992 27.9768 14.992C28.1926 14.9905 28.4065 15.032 28.6062 15.1138C28.8059 15.1957 28.9874 15.3165 29.14 15.469C29.2927 15.6216 29.4135 15.803 29.4955 16.0026C29.5775 16.2022 29.6191 16.4162 29.6178 16.632V30.835C29.6178 31.749 28.8908 32.452 27.9778 32.452H17.3368Z" fill="black"/>
</g>
</svg>
