<svg width="70" height="45" viewBox="0 0 70 45" fill="none" xmlns="http://www.w3.org/2000/svg">
<g id="visa 1">
<path id="Vector" d="M3.58974 0H66.4103C68.3929 0 70 1.60722 70 3.58974V41.2821C70 43.2647 68.3929 44.8718 66.4103 44.8718H3.58974C1.60722 44.8718 0 43.2647 0 41.2821V3.58974C0 1.60722 1.60722 0 3.58974 0Z" fill="#0E4595"/>
<path id="Vector_2" d="M26.3128 31.2963L29.3067 13.7281H34.0955L31.0994 31.2963H26.3128ZM48.3996 14.1068C47.451 13.7508 45.9642 13.3689 44.1079 13.3689C39.3761 13.3689 36.0431 15.7516 36.0148 19.1666C35.988 21.6911 38.3943 23.0993 40.2105 23.9397C42.0746 24.8008 42.7011 25.3499 42.6923 26.1189C42.6805 27.2965 41.2038 27.8345 39.8275 27.8345C37.9108 27.8345 36.8926 27.5682 35.3199 26.9123L34.7028 26.6332L34.0308 30.566C35.1492 31.0564 37.2175 31.4812 39.3649 31.5032C44.3986 31.5032 47.6662 29.1478 47.7035 25.501C47.7214 23.5025 46.4457 21.9816 43.6829 20.7277C42.0092 19.9151 40.9842 19.3727 40.995 18.5498C40.995 17.8195 41.8627 17.0386 43.7373 17.0386C45.3033 17.0144 46.4377 17.3558 47.3215 17.7117L47.7506 17.9145L48.3996 14.1068ZM60.7223 13.7278H57.022C55.8757 13.7278 55.0178 14.0407 54.5145 15.1847L47.4028 31.2847H52.4312C52.4312 31.2847 53.2533 29.1198 53.4392 28.6446C53.9889 28.6446 58.8737 28.6521 59.5721 28.6521C59.7154 29.2672 60.1546 31.2847 60.1546 31.2847H64.5981L60.7223 13.7272V13.7278ZM54.8514 25.0723C55.2474 24.0601 56.7594 20.1612 56.7594 20.1612C56.731 20.2081 57.1524 19.1441 57.3942 18.4845L57.7178 19.9992C57.7178 19.9992 58.6348 24.1929 58.8265 25.0723H54.8514ZM22.2476 13.7278L17.5594 25.7086L17.0598 23.2738C16.187 20.4673 13.4678 17.4266 10.4279 15.9042L14.7146 31.2683L19.7812 31.2626L27.32 13.7276H22.2476" fill="white"/>
<path id="Vector_3" d="M13.1853 13.7272H5.46364L5.40253 14.0927C11.4098 15.5469 15.3847 19.0612 17.0351 23.2833L15.356 15.21C15.0661 14.0976 14.2255 13.7657 13.1854 13.7268" fill="#F2AE14"/>
</g>
</svg>
