<svg width="16" height="21" viewBox="0 0 16 21" fill="none" xmlns="http://www.w3.org/2000/svg">
<g id="Icon">
<g id="Vector">
<path d="M13.3637 11.1096C13.3413 8.68725 15.398 7.50876 15.492 7.4539C14.3272 5.79815 12.5219 5.57193 11.8875 5.55389C10.3712 5.39831 8.9004 6.4385 8.128 6.4385C7.34018 6.4385 6.15075 5.56892 4.86881 5.59447C3.21918 5.61928 1.67592 6.55049 0.829517 7.99654C-0.917247 10.945 0.385503 15.2779 2.05904 17.6612C2.89619 18.8284 3.87441 20.1317 5.1548 20.0858C6.40744 20.0355 6.87536 19.3072 8.38701 19.3072C9.88478 19.3072 10.3242 20.0858 11.63 20.0565C12.9744 20.0355 13.8208 18.884 14.6286 17.7063C15.5961 16.3685 15.9846 15.0509 16 14.9833C15.9684 14.9728 13.3891 14.013 13.3637 11.1096Z" fill="black"/>
<path d="M10.8969 3.98608C11.5707 3.16459 12.0316 2.04699 11.9037 0.912842C10.9285 0.954931 9.70903 1.57048 9.00678 2.37393C8.38547 3.08192 7.83045 4.24237 7.97383 5.33367C9.06922 5.41334 10.1939 4.79479 10.8969 3.98608Z" fill="black"/>
</g>
</g>
</svg>
