<svg width="132" height="130" viewBox="0 0 132 130" fill="none" xmlns="http://www.w3.org/2000/svg">
<g id="Subtract">
<path d="M109.621 114.054C123.01 102.091 131.439 84.6925 131.439 65.325C131.439 29.247 102.192 0 66.1138 0C30.0358 0 0.788818 29.247 0.788818 65.325C0.788818 82.7803 7.63506 98.6366 18.7888 110.355V97.4158L25.75 90.4067L25.2482 89.6475C23.8859 87.5863 23.1872 85.7982 22.7303 83.2046C21.6882 77.2881 24.0748 73.4122 31.9521 68.2281C35.9467 65.5993 43.4781 61.5198 48.7872 59.1092L51.2994 57.9685V55.4842L50.462 55.2697C46.905 54.3593 44.166 52.2444 42.5462 49.158C41.6099 47.374 41.2503 45.867 41.253 43.7387C41.2564 41.1244 41.8193 39.2506 43.2455 37.1072C44.6282 35.0282 46.6614 33.4873 49.2306 32.5703C50.5395 32.1033 51.1375 32.1081 51.6539 32.59C52.3744 33.262 52.4014 33.8718 51.7571 34.9118C49.6993 38.2338 49.9545 41.6306 52.4546 44.1938C54.638 46.4322 58.0565 46.9708 60.757 45.5018C62.3609 44.6293 62.7408 44.4148 63.0805 44.4662C63.1999 44.4842 63.3143 44.5351 63.4751 44.6018C64.3886 44.9806 64.6236 45.6074 64.3159 46.8429C63.8522 48.7048 62.7636 50.5228 61.1592 52.1152C59.2876 53.9726 57.9101 54.6956 54.9845 55.3567C54.4458 55.4783 54.4348 55.5084 54.492 56.6939L54.5505 57.9068L58.5897 59.8052C69.3749 64.8745 77.8834 70.2813 80.9686 74.0265C84.1729 77.9161 84.2699 83.3961 81.2283 88.7075L80.2344 90.443L87.1596 97.4158V127.186C87.825 126.959 88.4856 126.723 89.1411 126.476C89.1878 123.986 89.4242 123.838 90.5966 123.618L91.2973 123.487V71.2954L90.5966 71.1638C89.1825 70.898 89.1299 70.7304 89.1299 66.48C89.1299 62.8656 89.1492 62.6746 89.5583 62.2384C89.8396 61.9388 90.2118 61.7819 90.642 61.7819H91.2973V51.6007L91.8569 50.7236C92.1646 50.2413 93.8493 47.822 95.6005 45.3475L98.7846 40.8484V37.2226C98.7846 33.5749 98.9136 32.7007 99.5207 32.2393C100.025 31.8563 100.974 31.9445 101.481 32.4216C101.928 32.8418 101.937 32.9301 101.937 36.7238V40.597L104.853 44.7285C106.457 47.0009 108.186 49.4697 108.696 50.2146L109.621 51.5694V61.7819H110.249C110.622 61.7819 111.062 61.9557 111.333 62.2108C111.779 62.6306 111.789 62.7222 111.789 66.4523C111.789 70.7335 111.738 70.8979 110.322 71.1638L109.621 71.2954V73.1565C109.621 74.8695 109.583 75.0561 109.138 75.5018C108.833 75.8072 108.429 75.9861 108.045 75.9861C107.661 75.9861 107.257 75.8072 106.953 75.5018C106.507 75.0553 106.469 74.8709 106.469 73.1344V71.2514H94.4498V123.531H95.8002C99.5849 121.596 103.156 119.304 106.469 116.698V80.9001L106.953 80.416C107.592 79.7753 108.498 79.7753 109.138 80.416L109.621 80.9001V114.054Z" fill="#165648"/>
<path d="M29.872 103.92C30.3326 103.539 31.1084 102.918 31.596 102.539C32.0837 102.16 32.5585 101.846 32.6513 101.84C32.7441 101.834 33.5644 102.412 34.4739 103.123L36.1278 104.416V110.313H29.0346V104.611L29.872 103.92Z" fill="#165648"/>
<path d="M69.6348 104.493L71.3533 103.171C72.2983 102.445 73.1475 101.846 73.2403 101.84C73.3331 101.834 74.1534 102.412 75.0629 103.123L76.7168 104.416V110.313H69.6236L69.6348 104.493Z" fill="#165648"/>
<path fill-rule="evenodd" clip-rule="evenodd" d="M84.007 128.169V98.7676L77.4023 92.1631H63.0966C48.9224 92.1631 48.7864 92.1593 48.272 91.7541C47.5386 91.1767 47.5386 89.993 48.272 89.4155C48.7862 89.0103 48.9232 89.0066 63.0401 89.0066H77.289L77.9092 88.104C80.1842 84.7933 80.8982 80.3556 79.5874 77.6732C78.5754 75.6022 76.2963 73.5463 71.6924 70.5514C67.6491 67.9213 60.5502 64.1304 54.4474 61.3426L52.9651 60.6653L48.5364 62.7603C39.3601 67.1008 32.1361 71.4548 28.6112 74.7697C26.068 77.1611 25.3071 79.3197 25.8284 82.6638C26.1015 84.4165 26.9647 86.5404 28.0392 88.104L28.6594 89.0066H42.8449L43.3284 89.4909C43.8531 90.0161 43.9571 90.8724 43.5595 91.3911C42.9966 92.1252 42.6006 92.1631 35.4983 92.1631H28.5377L21.9414 98.7761V113.452C27.8678 118.894 34.8024 123.256 42.4329 126.225V113.027L46.0065 109.352C51.5624 103.638 52.0979 103.072 52.6805 103.018C52.7607 103.011 52.8419 103.013 52.9372 103.013C53.032 103.013 53.1156 103.013 53.1982 103.022C53.8325 103.089 54.4108 103.684 59.5498 108.955L63.5155 113.023V129.844H76.4079C78.9946 129.434 81.5308 128.873 84.007 128.169ZM29.0988 100.492C30.6349 99.3083 32.0246 98.287 32.1871 98.2223C32.8086 97.9745 33.5169 98.3693 36.2452 100.484C38.2518 102.039 39.1209 102.838 39.2693 103.264C39.5416 104.046 39.5444 111.689 39.2727 112.405C38.8762 113.449 38.8289 113.456 32.716 113.463C29.3762 113.467 26.8899 113.39 26.6779 113.276C26.4796 113.17 26.2196 112.802 26.0998 112.458C25.8133 111.635 25.8085 104.072 26.094 103.253C26.2475 102.811 27.0759 102.051 29.0988 100.492ZM69.4872 100.629C70.9157 99.5127 72.3064 98.4815 72.5779 98.3369C72.8494 98.1925 73.2847 98.1252 73.5449 98.1878C73.8052 98.2501 75.2901 99.287 76.8447 100.492C79.2132 102.327 79.703 102.797 79.8678 103.39C80.1196 104.298 80.1266 111.387 79.8768 112.26C79.7965 112.54 79.7354 112.755 79.609 112.919C79.1953 113.457 78.082 113.458 73.3049 113.463C69.9652 113.467 67.4789 113.39 67.2668 113.276C67.0686 113.17 66.8085 112.802 66.6887 112.458C66.4042 111.64 66.3975 104.073 66.6807 103.259C66.8286 102.835 67.655 102.06 69.4872 100.629Z" fill="#165648"/>
<path d="M55.8197 129.844H60.363L60.3517 114.357L52.9665 106.702L45.5902 114.357L45.5862 127.36C48.8885 128.452 52.3075 129.288 55.8197 129.844Z" fill="#165648"/>
<path d="M44.4395 44.2165C44.3197 41.7089 44.8523 40.074 46.4457 38.059C46.7674 37.6522 47.0823 37.3192 47.1453 37.3194C47.2086 37.3194 47.263 38.1851 47.2663 39.2429C47.2756 42.1127 48.2523 44.4957 50.2313 46.4772C52.205 48.4535 54.5917 49.4366 57.4378 49.4458C59.4576 49.4523 59.5086 49.4946 58.516 50.3373C56.7913 51.8015 54.9497 52.394 52.4891 52.2762C51.0346 52.2066 50.5668 52.0906 49.3173 51.4898C47.4186 50.5772 46.1363 49.2933 45.2249 47.3923C44.6249 46.1412 44.509 45.6729 44.4395 44.2165Z" fill="#165648"/>
<path d="M94.4498 52.4958L97.4325 48.2489C99.0728 45.9133 100.482 44.0743 100.563 44.1625C100.644 44.2505 102.006 46.1686 103.59 48.4247L106.469 52.5266V61.7819H105.484V59.4365C105.484 58.1312 105.508 57.5003 105.271 56.9917C105.014 56.4415 104.451 56.0344 103.218 55.0715C101.466 53.7033 100.56 53.2379 100.027 53.4334C99.4535 53.6437 95.6894 56.613 95.5564 56.9598C95.4896 57.1342 95.435 58.2905 95.435 59.5294V61.7819H94.4498V52.4958Z" fill="#165648"/>
<path d="M98.6037 58.3295L99.433 57.6998C99.8891 57.3534 100.342 57.0648 100.439 57.0587C100.536 57.0524 101.002 57.3639 101.473 57.7509L102.331 58.4546V61.7819H98.5875L98.6037 58.3295Z" fill="#165648"/>
<path d="M92.2825 68.0949V64.9384H108.636V68.0949H92.2825Z" fill="#165648"/>
</g>
</svg>
